# xmcd
#
# Track frame offsets:
#	150
#	18490
#	42417
#	56622
#	73310
#	91152
#	109907
#	128717
#	152625
#
# Disc length: 2371 seconds
#
# Revision: 0
# Processed by: cddbd v1.5.1PL0 Copyright (c) Steve Scherf et al.
# Submitted via: EasyCDDAExtractor 4.6.9.1
#
DISCID=77094109
DTITLE=Mercy Dee Walton - Pity and A Shame
DYEAR=1961
DGENRE=Blues
TTITLE0=Pity and a Shame
TTITLE1=Your Friend and Woman
TTITLE2=Five Card Hand
TTITLE3=Have You Been Ever Out In The Country
TTITLE4=After The Fight
TTITLE5=One Room Country Shack
TTITLE6=My Little Angel
TTITLE7=Shady Lane
TTITLE8=The Drunkyard
EXTD=
EXTT0=
EXTT1=
EXTT2=
EXTT3=
EXTT4=
EXTT5=
EXTT6=
EXTT7=
EXTT8=
PLAYORDER=
